<svg width="16" height="16" viewBox="0 0 16 16" fill="none" xmlns="http://www.w3.org/2000/svg">
<path d="M15.5434 11.3065L12.0434 9.80651C11.8939 9.74279 11.7277 9.72937 11.5699 9.76826C11.4121 9.80714 11.2712 9.89624 11.1684 10.0221L9.61844 11.9159C7.18586 10.769 5.22819 8.81128 4.08125 6.3787L5.975 4.8287C6.10115 4.7261 6.19043 4.58519 6.22934 4.42731C6.26825 4.26943 6.25466 4.10317 6.19062 3.9537L4.69062 0.453703C4.62035 0.292581 4.49605 0.16103 4.33917 0.0817343C4.18229 0.00243843 4.00266 -0.0196321 3.83125 0.0193285L0.58125 0.769328C0.41599 0.80749 0.268545 0.90054 0.16298 1.03329C0.0574141 1.16604 -3.80691e-05 1.33066 1.89256e-08 1.50027C1.89256e-08 9.51589 6.49687 16.0003 14.5 16.0003C14.6697 16.0004 14.8343 15.943 14.9672 15.8374C15.1 15.7318 15.1931 15.5843 15.2312 15.419L15.9812 12.169C16.02 11.9968 15.9974 11.8164 15.9175 11.659C15.8376 11.5016 15.7053 11.3769 15.5434 11.3065Z" fill="white"/>
</svg>
